<svg xmlns="http://www.w3.org/2000/svg" viewBox="0 0 1254 1254" width="1254" height="1254" role="img" aria-label="QDesk">
  <defs>
    <linearGradient id="tile" x1="627" y1="0" x2="627" y2="1254" gradientUnits="userSpaceOnUse">
      <stop offset="0" stop-color="#27B2FB"/>
      <stop offset="0.30" stop-color="#04A2FD"/>
      <stop offset="0.62" stop-color="#0198FB"/>
      <stop offset="1" stop-color="#0489F5"/>
    </linearGradient>
    <linearGradient id="gloss" x1="627" y1="20" x2="627" y2="430" gradientUnits="userSpaceOnUse">
      <stop offset="0" stop-color="#FFFFFF" stop-opacity="0.5"/>
      <stop offset="0.55" stop-color="#FFFFFF" stop-opacity="0.09"/>
      <stop offset="1" stop-color="#FFFFFF" stop-opacity="0"/>
    </linearGradient>
    <linearGradient id="botShade" x1="627" y1="840" x2="627" y2="1254" gradientUnits="userSpaceOnUse">
      <stop offset="0" stop-color="#005FBE" stop-opacity="0"/>
      <stop offset="1" stop-color="#005FBE" stop-opacity="0.16"/>
    </linearGradient>
    <clipPath id="round"><rect x="2" y="2" width="1250" height="1250" rx="186" ry="186"/></clipPath>
  </defs>
  <g clip-path="url(#round)">
    <rect x="2" y="2" width="1250" height="1250" fill="url(#tile)"/>
    <rect x="2" y="2" width="1250" height="1250" fill="url(#botShade)"/>
    <path d="M2 2 H1252 V300 Q940 470 627 470 Q314 470 2 300 Z" fill="url(#gloss)"/>
  </g>
  <path d="M0 0H1254V1254H0ZM0.0 627.0L0.0 0.0 L627.0 0.0L1254.0 0.0 L1254.0 627.0L1254.0 1254.0 L627.0 1254.0L0.0 1254.0 L0.0 627.0ZM576.8 1053.6C587.7 1048.6 594.0 1039.4 594.8 1027.4C595.7 1013.4 590.5 1003.4 579.0 997.1L572.5 993.5 L534.2 993.2L496.0 992.9 L496.0 967.4C496.0 947.8 496.3 942.0 497.2 941.9C497.9 941.8 508.4 941.6 520.5 941.5C533.7 941.4 544.3 940.8 547.0 940.0C566.6 934.8 578.1 912.4 572.5 890.5C569.2 877.9 563.1 870.3 552.2 865.2L546.5 862.5 L418.5 862.0C302.3 861.5 290.1 861.3 285.7 859.8C268.2 853.6 255.1 842.3 247.7 826.9C245.2 821.7 242.6 814.8 242.0 811.5C241.2 807.2 241.0 750.5 241.2 610.0L241.5 414.5 L244.4 406.1C251.0 387.2 264.4 373.1 282.8 365.6L290.5 362.5 L567.0 362.5L843.5 362.5 L850.2 365.2C865.3 371.3 877.8 382.3 884.8 395.8C892.4 410.2 892.3 409.6 892.9 465.0L893.5 514.5 L896.3 520.2C902.1 532.0 914.1 539.6 928.7 540.7C951.0 542.4 967.6 531.0 972.0 511.0C972.9 507.0 973.1 492.2 972.7 455.0C972.3 408.1 972.2 403.9 970.2 395.5C966.2 378.2 959.8 362.8 951.5 349.8C930.5 317.4 900.5 296.6 863.0 288.4C854.8 286.6 843.6 286.5 570.5 286.5C296.4 286.5 286.2 286.6 277.5 288.4C219.3 300.5 178.0 340.8 163.8 399.2L161.5 408.5 L161.5 616.0C161.5 845.3 161.0 827.2 167.6 847.7C179.9 885.8 210.9 918.3 248.5 932.3C271.2 940.8 275.7 941.2 346.0 941.1C379.3 941.0 408.4 941.3 410.8 941.6L415.0 942.2 L415.0 967.6L415.0 992.9 L376.2 993.2L337.5 993.5 L331.8 996.3C309.0 1007.5 308.4 1041.7 330.8 1052.7C338.5 1056.5 339.5 1056.5 465.5 1056.4L570.5 1056.4 L576.8 1053.6ZM902.8 1048.3C903.1 1046.5 898.8 1041.9 882.8 1026.2C846.9 991.1 838.8 983.5 837.8 983.8C837.3 983.9 837.1 983.6 837.4 983.1C838.3 981.7 832.4 977.2 828.2 976.0C826.2 975.5 817.5 975.0 809.0 975.0C790.9 975.0 784.0 973.7 773.6 968.3C763.5 963.0 751.9 951.3 747.5 941.7C740.0 925.5 740.5 934.1 740.5 812.5C740.5 711.5 740.6 703.0 742.3 697.1C748.0 676.4 764.3 660.2 784.1 655.5C793.8 653.3 960.7 653.3 969.5 655.5C988.4 660.5 1004.5 677.2 1009.0 696.6C1010.6 703.9 1010.9 937.7 1009.2 946.9C1008.1 953.1 1005.9 957.0 1003.5 957.0C1002.8 957.0 991.4 946.4 978.1 933.4C960.3 915.9 954.0 909.2 954.0 907.5C954.0 905.7 956.3 903.5 964.2 897.8C969.9 893.8 975.7 889.7 977.2 888.7C978.8 887.7 980.0 886.3 980.0 885.6C980.0 883.7 986.1 885.6 910.5 864.5C897.3 860.8 877.3 855.2 866.0 852.0C828.5 841.5 824.9 840.6 823.1 841.7C822.2 842.3 821.4 843.5 821.2 844.4C821.0 845.3 825.2 858.3 830.5 873.3C842.7 907.4 862.9 964.1 863.5 965.8C864.5 968.6 868.1 966.6 876.8 958.5C884.3 951.6 886.4 950.1 887.8 950.9C888.7 951.5 906.5 968.5 927.2 988.9C962.2 1023.2 965.5 1026.1 972.4 1029.5C989.0 1037.5 1005.7 1038.0 1023.7 1031.1C1058.3 1017.7 1086.1 977.1 1092.0 931.5C1092.8 925.0 1093.0 889.5 1092.8 804.5C1092.5 687.7 1092.5 686.4 1090.3 677.0C1078.5 625.3 1041.9 589.5 988.7 577.8L978.5 575.5 L879.5 575.5C787.0 575.5 779.8 575.6 770.5 577.4C741.7 582.8 717.8 595.2 699.3 614.3C680.0 634.3 669.0 655.6 663.2 684.0C661.6 691.8 661.5 702.5 661.5 813.0L661.5 933.5 L663.7 943.7C676.3 1001.9 717.8 1041.0 776.0 1049.5C782.2 1050.4 800.8 1050.7 843.5 1050.6L902.5 1050.5 L902.8 1048.3ZM447.3 708.2C449.9 707.0 451.9 705.7 451.8 705.3C451.6 704.9 451.8 704.5 452.2 704.5C453.4 704.5 458.2 699.5 459.6 696.8C460.4 695.3 460.7 693.3 460.4 692.3C459.9 690.9 460.0 690.8 460.8 691.9C462.3 694.0 463.4 687.3 462.7 680.1C461.1 662.2 442.7 650.7 425.8 657.1C411.7 662.4 404.5 676.4 408.5 690.8C410.7 698.7 415.3 704.0 423.3 708.0C428.8 710.8 430.2 711.1 436.0 710.7C439.6 710.5 444.7 709.4 447.3 708.2ZM518.6 709.5C529.8 706.2 537.6 695.0 537.4 682.5C537.3 674.3 535.6 669.8 530.4 664.0C525.6 658.7 520.1 655.9 512.9 655.3C501.4 654.2 489.8 660.6 484.9 670.7C481.9 677.0 481.6 689.7 484.4 695.0C491.6 708.4 504.2 713.8 518.6 709.5ZM594.2 709.4C600.4 707.3 606.3 702.0 609.4 695.8C612.7 689.2 613.0 677.8 610.1 671.3C607.7 666.1 601.2 659.6 596.3 657.4C591.3 655.2 578.8 655.1 573.9 657.2C563.8 661.6 557.5 671.7 557.6 683.5C557.7 691.7 559.3 696.2 564.6 702.0C572.2 710.3 583.3 713.2 594.2 709.4Z" fill="#FFFFFF" fill-rule="evenodd"/>
</svg>
